Coordinates
version=1
nRows=9
nColumns=24
inDegrees=yes

Units are S.I. units (second, meters, Newtons, ...)
Angles are in degrees.

endheader
time	pelvis_tilt	pelvis_list	pelvis_rotation	pelvis_tx	pelvis_ty	pelvis_tz	hip_flexion_r	hip_adduction_r	hip_rotation_r	knee_angle_r	ankle_angle_r	subtalar_angle_r	mtp_angle_r	hip_flexion_l	hip_adduction_l	hip_rotation_l	knee_angle_l	ankle_angle_l	subtalar_angle_l	mtp_angle_l	lumbar_extension	lumbar_bending	lumbar_rotation
      0.51900000	     -1.14962518	      5.86833521	      1.74669464	     -0.82471345	      0.97623690	      0.28954247	     26.27537304	     -4.71612525	     -4.06485742	     -5.74771287	      6.92933772	     -3.21334595	      8.02765722	    -14.72674825	      9.35872385	      3.56662971	     -7.27820176	     10.94994156	     -4.53886043	     -0.30513112	     -0.40989577	     -3.85351121	     -0.04792995
      0.52316667	     -1.14636308	      5.83274265	      1.77122741	     -0.81883948	      0.97570840	      0.28992500	     26.28072645	     -4.64265404	     -4.14313877	     -6.00823567	      6.80609326	     -3.30476263	      8.02544466	    -14.84401290	      9.28863739	      3.54535247	     -7.74697343	     10.88740250	     -4.57447542	     -0.30112930	     -0.37824296	     -3.80809303	     -0.07797488
      0.52733333	     -1.24882847	      5.79568753	      1.81937471	     -0.81295673	      0.97507014	      0.29029652	     26.39676860	     -4.57346514	     -4.15879184	     -6.32667325	      6.59635928	     -3.51778680	      8.03440605	    -14.77257567	      9.21001145	      3.42421173	     -8.37053650	     10.94286010	     -4.35286451	     -0.25052351	     -0.20299998	     -3.74332278	     -0.19439199
      0.53150000	     -1.23131738	      5.74161163	      1.82314585	     -0.80700071	      0.97461792	      0.29069546	     26.40893565	     -4.47969944	     -4.21517797	     -6.75486501	      6.40789619	     -3.65276915	      8.03348020	    -14.88157991	      9.12589140	      3.38083314	     -8.88178247	     10.83852059	     -4.38452116	     -0.23751270	     -0.18060927	     -3.66338427	     -0.19734623
      0.53566667	     -1.32695050	      5.69649537	      1.86060084	     -0.80105458	      0.97405935	      0.29106883	     26.53578198	     -4.40392260	     -4.21575850	     -7.21865534	      6.07474241	     -3.92635993	      8.04336961	    -14.80006377	      9.04532354	      3.31125001	     -9.52855957	     10.81756678	     -4.22096192	     -0.16996314	     -0.00367900	     -3.57865625	     -0.22424551
      0.53983333	     -1.36718420	      5.62609613	      1.84349630	     -0.79507245	      0.97359044	      0.29155478	     26.59044774	     -4.26837804	     -4.07313459	     -7.69901522	      5.82460511	     -4.37269120	      8.08699089	    -14.74500228	      8.93830568	      3.08089478	    -10.23236316	     10.78869788	     -4.01567259	      0.03360895	      0.10026793	     -3.47723543	     -0.25504188
      0.54400000	     -1.33840135	      5.55721773	      1.83530007	     -0.78901413	      0.97327020	      0.29197145	     26.59049964	     -4.15932237	     -4.09644416	     -8.26803320	      5.53695180	     -4.50967335	      8.08687643	    -14.80271503	      8.84359721	      3.03705924	    -10.85345663	     10.58388732	     -4.09354976	      0.05897983	      0.11589283	     -3.38038541	     -0.25074247
      0.54816667	     -1.46211260	      5.50259409	      1.84513149	     -0.78297254	      0.97278452	      0.29239001	     26.74951202	     -4.06166637	     -4.01385373	     -8.85026238	      5.06257592	     -4.85131065	      8.10108162	    -14.64329213	      8.76357521	      2.96626006	    -11.58062752	     10.42724303	     -4.01996765	      0.18031245	      0.34340135	     -3.28040492	     -0.24091834
      0.55233333	     -1.50986650	      5.41231863	      1.80817762	     -0.77691629	      0.97242078	      0.29292811	     26.79996309	     -3.88886789	     -3.76272167	     -9.41362002	      4.74138683	     -5.48368849	      8.15525090	    -14.51232595	      8.63918976	      2.73052665	    -12.39867060	     10.31122091	     -3.87619254	      0.54850202	      0.46634593	     -3.15315995	     -0.23015582
